HIERARCHY
ROOT Hips
{
	OFFSET	0	0	0
	CHANNELS 6  Xposition Yposition Zposition Xrotation Yrotation Zrotation
	JOINT Spine
	{
		OFFSET	0	7.09727	1.42491
		CHANNELS 3  Xrotation Yrotation Zrotation
		JOINT Spine1
		{
			OFFSET	0	12.1515	-2.16991
			CHANNELS 3  Xrotation Yrotation Zrotation
			JOINT Spine2
			{
				OFFSET	0	9.21125	0.987307
				CHANNELS 3  Xrotation Yrotation Zrotation
				JOINT Spine3
				{
					OFFSET	0	11.0231	3.27656
					CHANNELS 3  Xrotation Yrotation Zrotation
					JOINT Spine4
					{
						OFFSET	0	16.3177	-1.67083
						CHANNELS 3  Xrotation Yrotation Zrotation
						JOINT Neck
						{
							OFFSET	0	7.78996	-5.45731
							CHANNELS 3  Xrotation Yrotation Zrotation
							JOINT Head
							{
								OFFSET	0	9.35229	-2.79918
								CHANNELS 3  Xrotation Yrotation Zrotation
								End Site
								{
									OFFSET	0	19.5075	-0.943909
								}
							}
						}
					}
					JOINT LeftShoulder
					{
						OFFSET	-4.687	19.8329	-9.3523
						CHANNELS 3  Xrotation Yrotation Zrotation
						JOINT LeftArm
						{
							OFFSET	-10.2164	-2.79918	3.59122
							CHANNELS 3  Xrotation Yrotation Zrotation
							JOINT LeftForeArm
							{
								OFFSET	-30.9138	-1.41096	2.20659
								CHANNELS 3  Xrotation Yrotation Zrotation
								JOINT LeftHand
								{
									OFFSET	-25.9068	-1.7903	1.8492
									CHANNELS 3  Xrotation Yrotation Zrotation
									End Site
									{
										OFFSET	-9.45469	-0.653372	0.674821
									}
								}
							}
						}
					}
					JOINT RightShoulder
					{
						OFFSET	4.687	19.8329	-9.3523
						CHANNELS 3  Xrotation Yrotation Zrotation
						JOINT RightArm
						{
							OFFSET	10.2164	-2.79918	3.59122
							CHANNELS 3  Xrotation Yrotation Zrotation
							JOINT RightForeArm
							{
								OFFSET	30.9138	-1.41096	2.20659
								CHANNELS 3  Xrotation Yrotation Zrotation
								JOINT RightHand
								{
									OFFSET	25.9068	-1.7903	1.8492
									CHANNELS 3  Xrotation Yrotation Zrotation
									End Site
									{
										OFFSET	9.45469	-0.653372	0.674821
									}
								}
							}
						}
					}
				}
			}
		}
	}
	JOINT LeftUpLeg
	{
		OFFSET	-9.67573	-3.54864	-0.712453
		CHANNELS 3  Xrotation Yrotation Zrotation
		JOINT LeftLeg
		{
			OFFSET	-2.14499	-42.0303	-0.657025
			CHANNELS 3  Xrotation Yrotation Zrotation
			JOINT LeftFoot
			{
				OFFSET	-2.09953	-38.701	3.32829
				CHANNELS 3  Xrotation Yrotation Zrotation
				JOINT LeftToeBase
				{
					OFFSET	0	-4.7778	-12.6898
					CHANNELS 3  Xrotation Yrotation Zrotation
					End Site
					{
						OFFSET	0	-1.91111	-7.64447
					}
				}
			}
		}
	}
	JOINT RightUpLeg
	{
		OFFSET	9.67573	-3.54864	-0.712453
		CHANNELS 3  Xrotation Yrotation Zrotation
		JOINT RightLeg
		{
			OFFSET	2.14499	-42.0303	-0.657025
			CHANNELS 3  Xrotation Yrotation Zrotation
			JOINT RightFoot
			{
				OFFSET	2.09953	-38.701	3.32829
				CHANNELS 3  Xrotation Yrotation Zrotation
				JOINT RightToeBase
				{
					OFFSET	0	-4.7778	-12.6898
					CHANNELS 3  Xrotation Yrotation Zrotation
					End Site
					{
						OFFSET	0	-1.91111	-7.64447
					}
				}
			}
		}
	}
}
MOTION
Frames: 16
Frame Time: 0.020408
 0 -10.1591 2.86036 -0 0 -0 -0 0 -0 -0 0 -0 -0 0 -0 -0 0 -0 -0 0 -0 -0 0 -0 -0 0 -0 -0 0 -0 -0 0 -0 -0 0 -0 -0 0 -0 -0 0 -0 -0 0 -0 -0 0 -0 -0 0 -0 -0 0 -0 -0 0 -0 -0 0 -0 -0 0 -0 -0 0 -0 -0 0 -0 -0 0 -0 -0 0 -0
 -115.854 14.1541 202.452 71.7717 -178.197 84.4005 179.979 179.091 -178.679 9.31301 1.81794 2.20197 9.70059 5.45381 2.21087 7.81808 0.9094 1.32068 179.432 -179.996 -179.56 170.125 164.192 166.035 175.893 140.451 -179.2 171.515 164.672 166.165 179.954 176.264 -122.737 97.9516 -12.9298 110.43 -0 -135.84 -60.038 1.16761 -18.1012 -1.77782 9.78064 33.5146 -49.6947 26.7137 117.973 -22.2283 -0 4.68878 78.4783 162.732 -70.2861 169.471 0.666719 -22.7595 -7.77631 115.918 156.814 141.969 171.643 180 -180 11.4237 4.91965 0.0415255 161.583 174.529 -169.339 96.446 49.2995 -10.0028 2.18473 0 0
 -116.073 14.5619 201.976 72.0638 -179.318 83.7264 179.982 179.322 -178.494 9.23093 1.35443 2.51042 9.69475 4.06328 2.51605 7.92424 0.67763 1.50594 179.017 -179.991 -179.498 168.95 164.064 165.331 175.437 140.012 -179.137 171.345 163.442 166.16 179.302 174.832 -122.938 98.8465 -12.5405 112.423 -0 -135.568 -59.3013 1.45178 -16.8605 -2.25921 10.205 31.9848 -50.7645 27.7454 118.527 -23.3443 -0 4.63747 77.5759 162.3 -70.4204 167.186 1.3613 -22.2462 -7.65089 116.815 156.839 140.752 171.562 180 -180 11.7309 5.41331 0.040115 161.711 172.728 -169.36 87.3913 38.8612 -5.95786 2.281 0 0
 -116.122 14.757 202.016 70.6794 179.896 84.1348 179.98 179.152 -178.658 9.15093 1.69556 2.23777 9.67394 5.08667 2.24564 8.09283 0.848194 1.34222 178.481 -179.988 -179.553 167.373 164.173 164.835 174.888 140.331 -179.066 171.315 164.009 165.977 179.081 174.471 -122.728 98.9555 -12.4762 113.242 -0 -135.269 -58.7623 1.34201 -17.1218 -2.07889 9.6221 29.737 -51.2116 28.4855 119.289 -23.7024 -0 4.56027 76.9003 162.19 -71.2233 167.062 179.997 -158.681 170.956 118.123 156.595 140.501 171.522 180 -180 12.0181 5.99452 0.0177645 160.459 170.976 -174.59 74.8115 15.2763 -6.96972 2.454 0 0
 -115.602 15.1027 202.08 70.2513 179.018 86.0618 179.988 179.185 -179.131 9.14307 1.63009 1.44929 9.80041 4.89027 1.45399 8.33076 0.815213 0.869309 177.881 -179.989 -179.71 165.662 163.809 165.062 174.232 140.332 -178.711 171.829 163.899 166.867 177.815 173.002 -122.208 98.7541 -12.5651 113.712 -0 -135.016 -58.5533 1.36566 -16.7427 -2.12929 9.11664 27.8776 -51.1101 29.0625 120.294 -24.0581 -0 4.42448 76.0396 167.878 -71.8504 171.485 179.6 -159.284 172.149 119.024 155.953 139.803 171.432 180 -180 14.1754 3.15465 -0.888084 155.5 172.917 179.975 51.3503 -3.76394 -13.7391 2.07117 0 0
 -114.563 15.8548 200.958 63.4991 177.976 87.1964 179.995 178.824 -179.78 9.02704 2.3523 0.367462 9.82143 7.0569 0.369955 8.49785 1.17617 0.220338 177.241 -179.996 -179.927 163.773 164.191 163.514 173.619 140.821 -178.919 172.674 162.155 168.619 175.521 170.963 -121.094 98.4404 -12.5352 113.783 -0 -134.965 -58.6934 2.2609 -14.5684 -3.65598 8.37377 26.2083 -50.9267 31.5051 119.602 -26.9616 -0 4.28906 75.059 163.556 -73.4105 166.739 176.644 -161.832 169.46 110.848 169.042 149.038 171.586 180 -180 21.114 -0.591933 -3.21956 147.502 -179.347 -176.986 172.663 178.65 -179.346 179.987 180 -180
 -115.852 16.0799 200.747 63.2927 176.618 83.2926 179.972 178.697 -178.783 8.89619 2.60523 2.03008 9.42862 7.81565 2.047 8.12042 1.30314 1.2171 177.966 -179.986 -179.595 165.897 164.708 163.006 174.429 140.665 -179.399 171.72 163.508 166.771 176.701 169.79 -122.251 99.5609 -11.4252 114.849 -0 -134.919 -59.403 2.08098 -13.4199 -3.42427 10.3094 25.8404 -51.4286 31.3729 121.624 -25.4649 -0 4.25771 74.0384 152.52 -72.8943 154.245 176.508 -162.072 168.339 113.496 166.517 146.891 171.475 180 -180 14.5445 -0.0103957 3.20762 163.873 175.569 176.127 53.0992 -20.7957 -27.0315 2.94686 0 0
 -114.968 14.5075 202.217 65.4658 178.678 85.339 179.982 179.022 -178.929 8.72717 1.95501 1.78608 9.36086 5.86502 1.79443 8.10897 0.977809 1.07118 177.636 -179.985 -179.643 164.979 164.532 160.72 174.025 139.333 -179.651 171.157 162.219 166.142 175.431 168.867 -121.258 99.3351 -10.6084 115.959 -0 -135.214 -60.0635 1.78389 -13.8726 -2.91428 7.71428 23.5941 -53.0135 30.8969 122.742 -25.7896 -0 4.07624 73.3775 153.432 -73.7881 158.293 174.579 -161.323 171.428 120.034 155.483 140.237 171.3 180 -180 12.9483 0.150083 5.50604 160.104 176.194 163.214 20.2394 -53.7485 -61.7852 4.49046 0 0
 -114.644 14.3916 202.116 64.8354 178.608 85.9889 179.983 178.853 -179.172 8.58277 2.29401 1.38035 9.22707 6.88202 1.38926 8.00875 1.14722 0.827713 177.591 -179.988 -179.724 164.921 164.956 160.37 174.084 139.934 -179.854 171.704 163.056 166.846 174.818 168.598 -121.143 98.6796 -10.112 115.613 -0 -135.55 -60.6624 1.25242 -14.3958 -2.02857 6.85221 21.942 -53.1808 31.9558 123.403 -26.1761 -0 3.94793 72.5694 150.852 -75.2772 156.115 173.412 -161.01 170.927 120.514 156.127 139.816 171.243 180 -180 12.6587 -1.63432 4.85455 160.787 179.128 164.787 18.6695 -48.3414 -60.2256 4.05472 0 0
 -114.42 14.4112 202.06 63.1044 178.109 86.1418 179.984 178.812 -179.226 8.73554 2.37604 1.29165 9.3945 7.12812 1.30059 8.14379 1.18821 0.774489 177.562 -179.989 -179.742 164.635 164.901 159.595 173.959 139.511 -179.947 171.64 162.029 166.977 173.907 167.657 -120.67 98.4881 -9.12539 116.083 -0 -136.1 -60.8761 1.48141 -12.9985 -2.45156 5.32882 20.2988 -53.159 33.5472 123.281 -27.8674 -0 3.7508 71.803 145.034 -76.9994 149.884 172.694 -161.601 171.306 120.892 156.503 138.848 171.145 180 -180 13.8441 -3.75761 5.09969 159.85 -176.061 165.832 12.728 -40.076 -61.0881 3.3827 0 0
 -114.072 14.6251 202.055 59.2609 177.332 87.0792 179.99 178.588 -179.602 8.90592 2.82483 0.664513 9.62551 8.47448 0.671032 8.3065 1.41247 0.398344 177.479 -179.994 -179.867 164.296 164.814 160.129 173.839 139.835 -179.79 171.973 161.433 167.649 172.429 166.574 -120.909 98.1397 -7.93221 116.394 -0 -136.865 -61.0445 1.60439 -11.9874 -2.69484 4.68132 19.337 -52.9096 35.2255 123.203 -29.6923 -0 3.55047 70.664 120.889 -80.441 126.32 169.163 -164.281 168.932 122.909 161.309 136.411 170.865 180 -180 14.1951 -6.9831 6.16904 162.397 -168.84 163.154 170.892 -145.408 104.626 3.03588 0 0
 -113.374 14.3443 202.163 60.0979 177.966 87.6743 179.995 178.601 -179.78 8.55491 2.79763 0.367758 9.32422 8.39288 0.371296 8.12653 1.39883 0.220458 177.219 -179.996 -179.927 163.804 164.949 159.182 173.682 139.792 -179.964 172.346 161.698 168.187 171.95 166.9 -121.012 96.9957 -6.72868 116.385 -0 -137.683 -61.5431 1.45665 -12.5071 -2.42803 3.57421 17.9898 -53.1331 36.0631 123.325 -30.1717 -0 3.32753 69.6374 131.079 -80.6273 136.213 170.603 -161.855 171.776 121.471 157.398 137.435 170.985 180 -180 14.0842 -8.46846 6.43446 160.456 -164.955 163.342 152.959 -149.783 89.4574 2.77572 0 0
 -113.072 14.4023 201.902 58.8741 176.952 87.5896 179.995 178.666 -179.801 8.86306 2.66864 0.332264 9.64367 8.00593 0.33517 8.34986 1.33434 0.199196 177.277 -179.997 -179.934 163.707 164.797 159.399 173.622 139.684 -179.863 172.238 159.967 168.394 171.285 166.105 -121.574 96.8401 -5.23132 117.869 -0 -138.484 -61.7997 1.6082 -11.318 -2.727 3.38652 17.7099 -53.0672 36.8836 123.418 -31.1633 -0 3.11139 68.5125 108.977 -82.0022 112.773 170.266 -161.947 172.358 122.362 158.391 135.205 170.833 180 -180 15.8708 -9.69037 6.39181 159.813 -162.042 164.857 147.468 -154.898 87.7801 2.46212 0 0
 -112.989 14.9818 201.712 56.1686 176.058 86.7497 179.99 178.448 -179.614 8.7943 3.10292 0.644254 9.50634 9.30876 0.651895 8.22353 1.55152 0.386127 177.465 -179.994 -179.871 164.292 165.223 159.769 173.914 140.386 -179.997 172.63 159.864 169.021 171.3 165.619 -122.136 96.9078 -4.03463 118.568 -0 -139.194 -60.943 2.00123 -10.7117 -3.42352 3.68875 17.4465 -53.4627 37.5711 123.927 -31.6275 -0 3.01277 67.1971 114.094 -81.5119 116.874 170.751 -159.648 172.062 118.275 157.943 141.737 170.948 180 -180 16.9158 -9.95063 6.82426 161.255 -160.359 164.868 150.623 -156.762 94.822 1.98699 0 0
 -113.313 15.5748 201.454 56.5885 175.355 85.5974 179.983 178.367 -179.413 8.67096 3.26539 0.979226 9.35828 9.79617 0.992103 8.20217 1.63285 0.586819 177.306 -179.991 -179.805 164.04 165.264 161.328 173.87 141.489 -179.708 173.134 161.573 169.465 171.674 165.837 -122.938 96.5179 -3.1367 118.566 -0 -139.798 -59.8208 2.09231 -10.7716 -3.57678 4.5373 17.4508 -53.1772 37.9302 124.567 -31.6153 -0 2.85948 65.3638 104.459 -80.2661 106.476 168.942 -157.85 170.292 116.943 162.297 144.05 170.893 180 -180 15.8639 -6.56294 6.84732 165.909 -162.344 164.605 170.112 -152.17 111.333 1.95512 0 0
 -112.935 14.0298 201.736 57.2427 177.208 86.9031 179.996 178.549 -179.835 8.4211 2.901 0.275767 9.23909 8.70301 0.278622 8.15777 1.45051 0.165301 176.888 -179.997 -179.945 163.03 164.986 159.977 173.45 140.713 -179.771 173.356 159.634 170.177 170.613 165.814 -123.223 95.3034 -2.62341 119.81 -0 -140.322 -58.9426 1.72005 -10.798 -2.9381 3.90857 16.67 -53.5368 37.8864 124.648 -32.0893 -0 2.5619 64.0314 102.623 -81.1919 107.139 168.968 -156.817 172.193 119.44 155.01 141.119 170.913 180 -180 16.3578 -9.78451 8.38989 159.157 -159.318 164.096 144.003 -158.726 87.8596 1.74257 0 0
